<mxfile host="app.diagrams.net" modified="2021-11-03T14:18:16.635Z" agent="5.0 (Macintosh; Intel Mac OS X 10_15_7) AppleWebKit/537.36 (KHTML, like Gecko) Chrome/95.0.4638.69 Safari/537.36" etag="Oz-d5K9OyGFGvigVz62G" version="15.6.8" type="github">
  <diagram id="7Mt5CVVSelNxjymzTzBY" name="第 1 页">
    <mxGraphModel dx="1201" dy="1844" grid="1" gridSize="10" guides="1" tooltips="1" connect="1" arrows="1" fold="1" page="1" pageScale="1" pageWidth="827" pageHeight="1169" math="0" shadow="0">
      <root>
        <mxCell id="0" />
        <mxCell id="1" parent="0" />
        <mxCell id="RlzC71JplKeRwMho_cgY-172" value="" style="rounded=0;whiteSpace=wrap;html=1;labelBackgroundColor=none;fillColor=default;verticalAlign=middle;" vertex="1" parent="1">
          <mxGeometry x="3280" y="-260" width="1370" height="1182.5" as="geometry" />
        </mxCell>
        <mxCell id="L_R_OmYirzBTy0bWvh7I-122" value="" style="rounded=0;whiteSpace=wrap;html=1;glass=0;labelBackgroundColor=default;fontColor=default;strokeColor=default;fillColor=default;verticalAlign=middle;" parent="1" vertex="1">
          <mxGeometry x="1654" y="75" width="1256" height="595" as="geometry" />
        </mxCell>
        <mxCell id="L_R_OmYirzBTy0bWvh7I-49" value="" style="rounded=0;whiteSpace=wrap;html=1;dashed=1;labelBackgroundColor=none;fontColor=default;strokeColor=default;fillColor=default;verticalAlign=middle;" parent="1" vertex="1">
          <mxGeometry x="150" y="-190" width="1040" height="1040" as="geometry" />
        </mxCell>
        <mxCell id="L_R_OmYirzBTy0bWvh7I-1" value="循环依赖" style="text;html=1;strokeColor=#d79b00;fillColor=#ffe6cc;align=center;verticalAlign=middle;whiteSpace=wrap;rounded=0;fontColor=default;" parent="1" vertex="1">
          <mxGeometry x="610" y="-220" width="90" height="30" as="geometry" />
        </mxCell>
        <mxCell id="L_R_OmYirzBTy0bWvh7I-6" value="" style="edgeStyle=orthogonalEdgeStyle;rounded=0;orthogonalLoop=1;jettySize=auto;html=1;fontColor=default;" parent="1" source="L_R_OmYirzBTy0bWvh7I-2" target="L_R_OmYirzBTy0bWvh7I-5" edge="1">
          <mxGeometry relative="1" as="geometry" />
        </mxCell>
        <mxCell id="L_R_OmYirzBTy0bWvh7I-2" value="Bean&amp;nbsp; A" style="rounded=0;whiteSpace=wrap;html=1;fontColor=default;fillColor=default;strokeColor=default;verticalAlign=top;" parent="1" vertex="1">
          <mxGeometry x="310" y="190" width="200" height="120" as="geometry" />
        </mxCell>
        <mxCell id="L_R_OmYirzBTy0bWvh7I-3" value="begin" style="text;html=1;strokeColor=#d79b00;fillColor=#ffe6cc;align=center;verticalAlign=middle;whiteSpace=wrap;rounded=0;fontColor=default;" parent="1" vertex="1">
          <mxGeometry x="310" y="160" width="60" height="30" as="geometry" />
        </mxCell>
        <mxCell id="L_R_OmYirzBTy0bWvh7I-4" value="@Autowired&lt;br&gt;B&amp;nbsp; b" style="rounded=0;whiteSpace=wrap;html=1;strokeColor=#b85450;fillColor=#f8cecc;fontColor=default;" parent="1" vertex="1">
          <mxGeometry x="350" y="240" width="120" height="60" as="geometry" />
        </mxCell>
        <mxCell id="L_R_OmYirzBTy0bWvh7I-8" value="" style="edgeStyle=orthogonalEdgeStyle;rounded=0;orthogonalLoop=1;jettySize=auto;html=1;fontColor=default;" parent="1" source="L_R_OmYirzBTy0bWvh7I-5" target="L_R_OmYirzBTy0bWvh7I-7" edge="1">
          <mxGeometry relative="1" as="geometry" />
        </mxCell>
        <mxCell id="L_R_OmYirzBTy0bWvh7I-5" value="实例化" style="whiteSpace=wrap;html=1;rounded=0;verticalAlign=middle;fillColor=default;strokeColor=default;fontColor=default;" parent="1" vertex="1">
          <mxGeometry x="350" y="380" width="120" height="60" as="geometry" />
        </mxCell>
        <mxCell id="L_R_OmYirzBTy0bWvh7I-10" value="" style="edgeStyle=orthogonalEdgeStyle;rounded=0;orthogonalLoop=1;jettySize=auto;html=1;fontColor=default;strokeColor=default;labelBackgroundColor=default;" parent="1" source="L_R_OmYirzBTy0bWvh7I-7" target="L_R_OmYirzBTy0bWvh7I-9" edge="1">
          <mxGeometry relative="1" as="geometry" />
        </mxCell>
        <mxCell id="L_R_OmYirzBTy0bWvh7I-11" value="加载B" style="edgeLabel;html=1;align=center;verticalAlign=middle;resizable=0;points=[];fontColor=default;" parent="L_R_OmYirzBTy0bWvh7I-10" vertex="1" connectable="0">
          <mxGeometry x="-0.0839" y="-1" relative="1" as="geometry">
            <mxPoint as="offset" />
          </mxGeometry>
        </mxCell>
        <mxCell id="L_R_OmYirzBTy0bWvh7I-7" value="属性填充&lt;br&gt;解析@Autowired注解" style="whiteSpace=wrap;html=1;rounded=0;fillColor=default;strokeColor=default;fontColor=default;" parent="1" vertex="1">
          <mxGeometry x="350" y="500" width="120" height="60" as="geometry" />
        </mxCell>
        <mxCell id="L_R_OmYirzBTy0bWvh7I-9" value="通过getBean从缓存中去取" style="whiteSpace=wrap;html=1;rounded=0;fillColor=default;strokeColor=default;fontColor=default;" parent="1" vertex="1">
          <mxGeometry x="780" y="500" width="120" height="60" as="geometry" />
        </mxCell>
        <mxCell id="L_R_OmYirzBTy0bWvh7I-16" value="" style="edgeStyle=orthogonalEdgeStyle;rounded=0;orthogonalLoop=1;jettySize=auto;html=1;labelBackgroundColor=default;fontColor=default;strokeColor=default;" parent="1" source="L_R_OmYirzBTy0bWvh7I-12" target="L_R_OmYirzBTy0bWvh7I-15" edge="1">
          <mxGeometry relative="1" as="geometry" />
        </mxCell>
        <mxCell id="L_R_OmYirzBTy0bWvh7I-12" value="Bean&amp;nbsp; B" style="rounded=0;whiteSpace=wrap;html=1;fontColor=default;fillColor=default;strokeColor=default;verticalAlign=top;" parent="1" vertex="1">
          <mxGeometry x="740" y="320" width="200" height="120" as="geometry" />
        </mxCell>
        <mxCell id="L_R_OmYirzBTy0bWvh7I-13" value="@Autowired&lt;br&gt;A&amp;nbsp; a" style="rounded=0;whiteSpace=wrap;html=1;strokeColor=#b85450;fillColor=#f8cecc;fontColor=default;" parent="1" vertex="1">
          <mxGeometry x="780" y="370" width="120" height="60" as="geometry" />
        </mxCell>
        <mxCell id="L_R_OmYirzBTy0bWvh7I-14" value="" style="endArrow=classic;html=1;rounded=0;labelBackgroundColor=default;fontColor=default;strokeColor=default;entryX=0.5;entryY=1;entryDx=0;entryDy=0;exitX=0.5;exitY=0;exitDx=0;exitDy=0;" parent="1" source="L_R_OmYirzBTy0bWvh7I-9" target="L_R_OmYirzBTy0bWvh7I-12" edge="1">
          <mxGeometry width="50" height="50" relative="1" as="geometry">
            <mxPoint x="1040" y="540" as="sourcePoint" />
            <mxPoint x="1090" y="490" as="targetPoint" />
          </mxGeometry>
        </mxCell>
        <mxCell id="L_R_OmYirzBTy0bWvh7I-18" value="" style="edgeStyle=orthogonalEdgeStyle;rounded=0;orthogonalLoop=1;jettySize=auto;html=1;labelBackgroundColor=default;fontColor=default;strokeColor=default;" parent="1" source="L_R_OmYirzBTy0bWvh7I-15" target="L_R_OmYirzBTy0bWvh7I-17" edge="1">
          <mxGeometry relative="1" as="geometry" />
        </mxCell>
        <mxCell id="L_R_OmYirzBTy0bWvh7I-15" value="实例化" style="whiteSpace=wrap;html=1;rounded=0;verticalAlign=middle;fillColor=default;strokeColor=default;fontColor=default;" parent="1" vertex="1">
          <mxGeometry x="780" y="210" width="120" height="60" as="geometry" />
        </mxCell>
        <mxCell id="L_R_OmYirzBTy0bWvh7I-20" value="" style="edgeStyle=orthogonalEdgeStyle;rounded=0;orthogonalLoop=1;jettySize=auto;html=1;labelBackgroundColor=default;fontColor=default;strokeColor=default;" parent="1" source="L_R_OmYirzBTy0bWvh7I-17" target="L_R_OmYirzBTy0bWvh7I-19" edge="1">
          <mxGeometry relative="1" as="geometry" />
        </mxCell>
        <mxCell id="L_R_OmYirzBTy0bWvh7I-21" value="加载A" style="edgeLabel;html=1;align=center;verticalAlign=middle;resizable=0;points=[];fontColor=default;" parent="L_R_OmYirzBTy0bWvh7I-20" vertex="1" connectable="0">
          <mxGeometry x="-0.071" relative="1" as="geometry">
            <mxPoint as="offset" />
          </mxGeometry>
        </mxCell>
        <mxCell id="L_R_OmYirzBTy0bWvh7I-17" value="属性赋值&lt;br&gt;解析@Autowired" style="whiteSpace=wrap;html=1;rounded=0;fillColor=default;strokeColor=default;fontColor=default;" parent="1" vertex="1">
          <mxGeometry x="780" y="90" width="120" height="60" as="geometry" />
        </mxCell>
        <mxCell id="L_R_OmYirzBTy0bWvh7I-19" value="通过getBean从缓存中去取" style="whiteSpace=wrap;html=1;rounded=0;fillColor=default;strokeColor=default;fontColor=default;" parent="1" vertex="1">
          <mxGeometry x="350" y="90" width="120" height="60" as="geometry" />
        </mxCell>
        <mxCell id="L_R_OmYirzBTy0bWvh7I-22" value="" style="endArrow=classic;html=1;rounded=0;labelBackgroundColor=default;fontColor=default;strokeColor=default;entryX=0.5;entryY=0;entryDx=0;entryDy=0;exitX=0.5;exitY=1;exitDx=0;exitDy=0;" parent="1" source="L_R_OmYirzBTy0bWvh7I-19" target="L_R_OmYirzBTy0bWvh7I-2" edge="1">
          <mxGeometry width="50" height="50" relative="1" as="geometry">
            <mxPoint x="600" y="260" as="sourcePoint" />
            <mxPoint x="650" y="210" as="targetPoint" />
          </mxGeometry>
        </mxCell>
        <mxCell id="L_R_OmYirzBTy0bWvh7I-23" value="" style="whiteSpace=wrap;html=1;rounded=0;fillColor=default;strokeColor=default;fontColor=default;dashed=1;" parent="1" vertex="1">
          <mxGeometry x="345" y="720" width="130" height="80" as="geometry" />
        </mxCell>
        <mxCell id="L_R_OmYirzBTy0bWvh7I-29" value="&lt;span&gt;成熟A&lt;/span&gt;" style="ellipse;whiteSpace=wrap;html=1;aspect=fixed;strokeColor=#d79b00;fillColor=#ffe6cc;verticalAlign=middle;fontColor=default;" parent="1" vertex="1">
          <mxGeometry x="370" y="720" width="80" height="80" as="geometry" />
        </mxCell>
        <mxCell id="L_R_OmYirzBTy0bWvh7I-30" value="map" style="text;html=1;strokeColor=none;fillColor=none;align=center;verticalAlign=middle;whiteSpace=wrap;rounded=0;fontColor=default;" parent="1" vertex="1">
          <mxGeometry x="400" y="700" width="60" height="30" as="geometry" />
        </mxCell>
        <mxCell id="L_R_OmYirzBTy0bWvh7I-31" value="" style="endArrow=classic;html=1;rounded=0;labelBackgroundColor=default;fontColor=default;strokeColor=default;exitX=0.5;exitY=1;exitDx=0;exitDy=0;dashed=1;" parent="1" source="L_R_OmYirzBTy0bWvh7I-7" edge="1">
          <mxGeometry width="50" height="50" relative="1" as="geometry">
            <mxPoint x="480" y="650" as="sourcePoint" />
            <mxPoint x="410" y="720" as="targetPoint" />
          </mxGeometry>
        </mxCell>
        <mxCell id="L_R_OmYirzBTy0bWvh7I-32" value="在属性填充之后，初始化完成，就会将对象存放到&lt;br&gt;缓存Map中" style="edgeLabel;html=1;align=center;verticalAlign=middle;resizable=0;points=[];fontColor=default;" parent="L_R_OmYirzBTy0bWvh7I-31" vertex="1" connectable="0">
          <mxGeometry x="-0.1625" relative="1" as="geometry">
            <mxPoint y="13" as="offset" />
          </mxGeometry>
        </mxCell>
        <mxCell id="L_R_OmYirzBTy0bWvh7I-38" value="" style="whiteSpace=wrap;html=1;rounded=0;fillColor=default;strokeColor=default;fontColor=default;dashed=1;" parent="1" vertex="1">
          <mxGeometry x="781" y="-130" width="130" height="80" as="geometry" />
        </mxCell>
        <mxCell id="L_R_OmYirzBTy0bWvh7I-39" value="&lt;span&gt;成熟B&lt;/span&gt;" style="ellipse;whiteSpace=wrap;html=1;aspect=fixed;strokeColor=#d6b656;fillColor=#fff2cc;verticalAlign=middle;fontColor=default;" parent="1" vertex="1">
          <mxGeometry x="801" y="-130" width="80" height="80" as="geometry" />
        </mxCell>
        <mxCell id="L_R_OmYirzBTy0bWvh7I-40" value="map" style="text;html=1;strokeColor=default;fillColor=default;align=center;verticalAlign=middle;whiteSpace=wrap;rounded=0;fontColor=default;" parent="1" vertex="1">
          <mxGeometry x="846" y="-160" width="60" height="30" as="geometry" />
        </mxCell>
        <mxCell id="L_R_OmYirzBTy0bWvh7I-41" value="" style="endArrow=classic;html=1;rounded=0;labelBackgroundColor=default;fontColor=default;strokeColor=default;exitX=0.5;exitY=0;exitDx=0;exitDy=0;dashed=1;fillColor=default;entryX=0.5;entryY=1;entryDx=0;entryDy=0;" parent="1" source="L_R_OmYirzBTy0bWvh7I-17" target="L_R_OmYirzBTy0bWvh7I-39" edge="1">
          <mxGeometry width="50" height="50" relative="1" as="geometry">
            <mxPoint x="825" y="-290" as="sourcePoint" />
            <mxPoint x="970" as="targetPoint" />
          </mxGeometry>
        </mxCell>
        <mxCell id="L_R_OmYirzBTy0bWvh7I-42" value="在属性填充之后，初始化完成，就会将对象存放到&lt;br&gt;缓存Map中" style="edgeLabel;html=1;align=center;verticalAlign=middle;resizable=0;points=[];fontColor=default;labelBackgroundColor=default;" parent="L_R_OmYirzBTy0bWvh7I-41" vertex="1" connectable="0">
          <mxGeometry x="-0.1625" relative="1" as="geometry">
            <mxPoint x="2" y="-11" as="offset" />
          </mxGeometry>
        </mxCell>
        <mxCell id="L_R_OmYirzBTy0bWvh7I-43" value="" style="endArrow=none;dashed=1;html=1;rounded=0;labelBackgroundColor=default;fontColor=default;strokeColor=default;fillColor=default;" parent="1" edge="1">
          <mxGeometry width="50" height="50" relative="1" as="geometry">
            <mxPoint x="200" y="580" as="sourcePoint" />
            <mxPoint x="750" y="580" as="targetPoint" />
          </mxGeometry>
        </mxCell>
        <mxCell id="L_R_OmYirzBTy0bWvh7I-44" value="" style="endArrow=none;dashed=1;html=1;rounded=0;labelBackgroundColor=default;fontColor=default;strokeColor=default;fillColor=default;" parent="1" edge="1">
          <mxGeometry width="50" height="50" relative="1" as="geometry">
            <mxPoint x="580" y="50" as="sourcePoint" />
            <mxPoint x="1110" y="50" as="targetPoint" />
          </mxGeometry>
        </mxCell>
        <mxCell id="L_R_OmYirzBTy0bWvh7I-45" value="但是无法达到，一直陷入死循环之中，卡在赋值" style="text;html=1;strokeColor=#9673a6;fillColor=#e1d5e7;align=center;verticalAlign=middle;whiteSpace=wrap;rounded=0;dashed=1;labelBackgroundColor=none;fontColor=default;" parent="1" vertex="1">
          <mxGeometry x="631" y="630" width="150" height="40" as="geometry" />
        </mxCell>
        <mxCell id="L_R_OmYirzBTy0bWvh7I-46" value="" style="endArrow=classic;html=1;rounded=0;dashed=1;labelBackgroundColor=default;fontColor=default;strokeColor=default;fillColor=default;exitX=0.5;exitY=0;exitDx=0;exitDy=0;" parent="1" source="L_R_OmYirzBTy0bWvh7I-45" edge="1">
          <mxGeometry width="50" height="50" relative="1" as="geometry">
            <mxPoint x="630" y="630" as="sourcePoint" />
            <mxPoint x="680" y="580" as="targetPoint" />
          </mxGeometry>
        </mxCell>
        <mxCell id="L_R_OmYirzBTy0bWvh7I-47" value="但是无法达到，一直陷入死循环之中，卡在赋值" style="text;html=1;strokeColor=#9673a6;fillColor=#e1d5e7;align=center;verticalAlign=middle;whiteSpace=wrap;rounded=0;dashed=1;labelBackgroundColor=none;fontColor=default;" parent="1" vertex="1">
          <mxGeometry x="490" y="-40" width="150" height="40" as="geometry" />
        </mxCell>
        <mxCell id="L_R_OmYirzBTy0bWvh7I-48" value="" style="endArrow=classic;html=1;rounded=0;dashed=1;labelBackgroundColor=default;fontColor=default;strokeColor=default;fillColor=default;exitX=0.5;exitY=1;exitDx=0;exitDy=0;" parent="1" source="L_R_OmYirzBTy0bWvh7I-47" edge="1">
          <mxGeometry width="50" height="50" relative="1" as="geometry">
            <mxPoint x="489" y="-40" as="sourcePoint" />
            <mxPoint x="660" y="50" as="targetPoint" />
          </mxGeometry>
        </mxCell>
        <mxCell id="L_R_OmYirzBTy0bWvh7I-51" value="一级缓存解决循环依赖" style="text;html=1;strokeColor=#d79b00;fillColor=#ffe6cc;align=center;verticalAlign=middle;whiteSpace=wrap;rounded=0;fontColor=default;" parent="1" vertex="1">
          <mxGeometry x="2035" y="60" width="130" height="30" as="geometry" />
        </mxCell>
        <mxCell id="L_R_OmYirzBTy0bWvh7I-52" value="" style="edgeStyle=orthogonalEdgeStyle;rounded=0;orthogonalLoop=1;jettySize=auto;html=1;fontColor=default;" parent="1" source="L_R_OmYirzBTy0bWvh7I-53" target="L_R_OmYirzBTy0bWvh7I-57" edge="1">
          <mxGeometry relative="1" as="geometry" />
        </mxCell>
        <mxCell id="L_R_OmYirzBTy0bWvh7I-53" value="Bean&amp;nbsp; A" style="rounded=0;whiteSpace=wrap;html=1;fontColor=default;fillColor=default;strokeColor=default;verticalAlign=top;" parent="1" vertex="1">
          <mxGeometry x="1710" y="260" width="200" height="120" as="geometry" />
        </mxCell>
        <mxCell id="L_R_OmYirzBTy0bWvh7I-54" value="begin" style="text;html=1;strokeColor=#d79b00;fillColor=#ffe6cc;align=center;verticalAlign=middle;whiteSpace=wrap;rounded=0;fontColor=default;" parent="1" vertex="1">
          <mxGeometry x="1710" y="230" width="60" height="30" as="geometry" />
        </mxCell>
        <mxCell id="L_R_OmYirzBTy0bWvh7I-55" value="@Autowired&lt;br&gt;B&amp;nbsp; b" style="rounded=0;whiteSpace=wrap;html=1;strokeColor=#b85450;fillColor=#f8cecc;fontColor=default;" parent="1" vertex="1">
          <mxGeometry x="1750" y="310" width="120" height="60" as="geometry" />
        </mxCell>
        <mxCell id="L_R_OmYirzBTy0bWvh7I-56" value="" style="edgeStyle=orthogonalEdgeStyle;rounded=0;orthogonalLoop=1;jettySize=auto;html=1;fontColor=default;" parent="1" source="L_R_OmYirzBTy0bWvh7I-57" target="L_R_OmYirzBTy0bWvh7I-60" edge="1">
          <mxGeometry relative="1" as="geometry" />
        </mxCell>
        <mxCell id="L_R_OmYirzBTy0bWvh7I-57" value="实例化A" style="whiteSpace=wrap;html=1;rounded=0;verticalAlign=middle;fillColor=default;strokeColor=default;fontColor=default;" parent="1" vertex="1">
          <mxGeometry x="1750" y="450" width="120" height="60" as="geometry" />
        </mxCell>
        <mxCell id="L_R_OmYirzBTy0bWvh7I-58" value="" style="edgeStyle=orthogonalEdgeStyle;rounded=0;orthogonalLoop=1;jettySize=auto;html=1;fontColor=default;strokeColor=default;labelBackgroundColor=default;" parent="1" source="L_R_OmYirzBTy0bWvh7I-60" edge="1">
          <mxGeometry relative="1" as="geometry">
            <mxPoint x="2140" y="430" as="targetPoint" />
          </mxGeometry>
        </mxCell>
        <mxCell id="L_R_OmYirzBTy0bWvh7I-59" value="加载B" style="edgeLabel;html=1;align=center;verticalAlign=middle;resizable=0;points=[];fontColor=default;labelBackgroundColor=default;" parent="L_R_OmYirzBTy0bWvh7I-58" vertex="1" connectable="0">
          <mxGeometry x="-0.0839" y="-1" relative="1" as="geometry">
            <mxPoint x="32" y="-1" as="offset" />
          </mxGeometry>
        </mxCell>
        <mxCell id="L_R_OmYirzBTy0bWvh7I-60" value="属性填充&lt;br&gt;解析@Autowired注解" style="whiteSpace=wrap;html=1;rounded=0;fillColor=default;strokeColor=default;fontColor=default;" parent="1" vertex="1">
          <mxGeometry x="1750" y="570" width="120" height="60" as="geometry" />
        </mxCell>
        <mxCell id="L_R_OmYirzBTy0bWvh7I-62" value="" style="edgeStyle=orthogonalEdgeStyle;rounded=0;orthogonalLoop=1;jettySize=auto;html=1;labelBackgroundColor=default;fontColor=default;strokeColor=default;" parent="1" source="L_R_OmYirzBTy0bWvh7I-63" target="L_R_OmYirzBTy0bWvh7I-67" edge="1">
          <mxGeometry relative="1" as="geometry" />
        </mxCell>
        <mxCell id="L_R_OmYirzBTy0bWvh7I-63" value="Bean&amp;nbsp; B" style="rounded=0;whiteSpace=wrap;html=1;fontColor=default;fillColor=default;strokeColor=default;verticalAlign=top;" parent="1" vertex="1">
          <mxGeometry x="2350" y="390" width="200" height="120" as="geometry" />
        </mxCell>
        <mxCell id="L_R_OmYirzBTy0bWvh7I-64" value="@Autowired&lt;br&gt;A&amp;nbsp; a" style="rounded=0;whiteSpace=wrap;html=1;strokeColor=#b85450;fillColor=#f8cecc;fontColor=default;" parent="1" vertex="1">
          <mxGeometry x="2390" y="440" width="120" height="60" as="geometry" />
        </mxCell>
        <mxCell id="L_R_OmYirzBTy0bWvh7I-66" value="" style="edgeStyle=orthogonalEdgeStyle;rounded=0;orthogonalLoop=1;jettySize=auto;html=1;labelBackgroundColor=default;fontColor=default;strokeColor=default;" parent="1" source="L_R_OmYirzBTy0bWvh7I-67" target="L_R_OmYirzBTy0bWvh7I-70" edge="1">
          <mxGeometry relative="1" as="geometry" />
        </mxCell>
        <mxCell id="L_R_OmYirzBTy0bWvh7I-67" value="实例化B" style="whiteSpace=wrap;html=1;rounded=0;verticalAlign=middle;fillColor=default;strokeColor=default;fontColor=default;" parent="1" vertex="1">
          <mxGeometry x="2390" y="280" width="120" height="60" as="geometry" />
        </mxCell>
        <mxCell id="L_R_OmYirzBTy0bWvh7I-70" value="属性赋值&lt;br&gt;解析@Autowired" style="whiteSpace=wrap;html=1;rounded=0;fillColor=default;strokeColor=default;fontColor=default;" parent="1" vertex="1">
          <mxGeometry x="2390" y="160" width="120" height="60" as="geometry" />
        </mxCell>
        <mxCell id="L_R_OmYirzBTy0bWvh7I-73" value="" style="whiteSpace=wrap;html=1;rounded=0;fillColor=default;strokeColor=default;fontColor=default;" parent="1" vertex="1">
          <mxGeometry x="2080" y="350" width="130" height="80" as="geometry" />
        </mxCell>
        <mxCell id="L_R_OmYirzBTy0bWvh7I-74" value="&lt;span&gt;非成熟对象&lt;br&gt;A，B&lt;br&gt;&lt;/span&gt;" style="ellipse;whiteSpace=wrap;html=1;aspect=fixed;strokeColor=default;fillColor=default;verticalAlign=middle;fontColor=default;" parent="1" vertex="1">
          <mxGeometry x="2105" y="350" width="80" height="80" as="geometry" />
        </mxCell>
        <mxCell id="L_R_OmYirzBTy0bWvh7I-75" value="map" style="text;html=1;strokeColor=default;fillColor=default;align=center;verticalAlign=middle;whiteSpace=wrap;rounded=0;fontColor=default;" parent="1" vertex="1">
          <mxGeometry x="2020" y="375" width="60" height="30" as="geometry" />
        </mxCell>
        <mxCell id="L_R_OmYirzBTy0bWvh7I-91" value="" style="endArrow=classic;html=1;rounded=0;labelBackgroundColor=default;fontColor=default;strokeColor=default;fillColor=default;exitX=1;exitY=0.5;exitDx=0;exitDy=0;entryX=0.5;entryY=1;entryDx=0;entryDy=0;" parent="1" source="L_R_OmYirzBTy0bWvh7I-57" target="L_R_OmYirzBTy0bWvh7I-74" edge="1">
          <mxGeometry width="50" height="50" relative="1" as="geometry">
            <mxPoint x="2120" y="500" as="sourcePoint" />
            <mxPoint x="2170" y="450" as="targetPoint" />
            <Array as="points">
              <mxPoint x="2145" y="480" />
            </Array>
          </mxGeometry>
        </mxCell>
        <mxCell id="L_R_OmYirzBTy0bWvh7I-92" value="实例化后直接放入缓存" style="edgeLabel;html=1;align=center;verticalAlign=middle;resizable=0;points=[];fontColor=default;" parent="L_R_OmYirzBTy0bWvh7I-91" vertex="1" connectable="0">
          <mxGeometry x="-0.2738" relative="1" as="geometry">
            <mxPoint as="offset" />
          </mxGeometry>
        </mxCell>
        <mxCell id="L_R_OmYirzBTy0bWvh7I-93" value="" style="endArrow=classic;html=1;rounded=0;labelBackgroundColor=default;fontColor=default;strokeColor=default;fillColor=default;exitX=0;exitY=0.5;exitDx=0;exitDy=0;entryX=0.5;entryY=0;entryDx=0;entryDy=0;" parent="1" source="L_R_OmYirzBTy0bWvh7I-67" target="L_R_OmYirzBTy0bWvh7I-74" edge="1">
          <mxGeometry width="50" height="50" relative="1" as="geometry">
            <mxPoint x="2180" y="280" as="sourcePoint" />
            <mxPoint x="2230" y="230" as="targetPoint" />
            <Array as="points">
              <mxPoint x="2145" y="310" />
            </Array>
          </mxGeometry>
        </mxCell>
        <mxCell id="L_R_OmYirzBTy0bWvh7I-94" value="实例化后直接放入缓存" style="edgeLabel;html=1;align=center;verticalAlign=middle;resizable=0;points=[];fontColor=default;" parent="L_R_OmYirzBTy0bWvh7I-93" vertex="1" connectable="0">
          <mxGeometry x="-0.1368" relative="1" as="geometry">
            <mxPoint as="offset" />
          </mxGeometry>
        </mxCell>
        <mxCell id="L_R_OmYirzBTy0bWvh7I-96" value="" style="endArrow=classic;html=1;rounded=0;labelBackgroundColor=default;fontColor=default;strokeColor=default;fillColor=default;exitX=0;exitY=0.5;exitDx=0;exitDy=0;entryX=1;entryY=0.5;entryDx=0;entryDy=0;" parent="1" source="L_R_OmYirzBTy0bWvh7I-70" target="L_R_OmYirzBTy0bWvh7I-98" edge="1">
          <mxGeometry width="50" height="50" relative="1" as="geometry">
            <mxPoint x="2180" y="210" as="sourcePoint" />
            <mxPoint x="2180" y="190" as="targetPoint" />
          </mxGeometry>
        </mxCell>
        <mxCell id="L_R_OmYirzBTy0bWvh7I-98" value="getSingleton" style="text;html=1;strokeColor=none;fillColor=none;align=center;verticalAlign=middle;whiteSpace=wrap;rounded=0;dashed=1;labelBackgroundColor=default;fontColor=default;" parent="1" vertex="1">
          <mxGeometry x="2105" y="175" width="80" height="35" as="geometry" />
        </mxCell>
        <mxCell id="L_R_OmYirzBTy0bWvh7I-99" value="出口" style="text;html=1;strokeColor=#82b366;fillColor=#d5e8d4;align=center;verticalAlign=middle;whiteSpace=wrap;rounded=0;labelBackgroundColor=default;fontColor=default;" parent="1" vertex="1">
          <mxGeometry x="2105" y="135" width="60" height="40" as="geometry" />
        </mxCell>
        <mxCell id="L_R_OmYirzBTy0bWvh7I-100" value="从缓存对象中获取非成熟对象A" style="endArrow=classic;html=1;rounded=0;labelBackgroundColor=default;fontColor=default;strokeColor=default;fillColor=default;entryX=0.5;entryY=0;entryDx=0;entryDy=0;" parent="1" target="L_R_OmYirzBTy0bWvh7I-74" edge="1">
          <mxGeometry width="50" height="50" relative="1" as="geometry">
            <mxPoint x="2145" y="210" as="sourcePoint" />
            <mxPoint x="2070" y="240" as="targetPoint" />
          </mxGeometry>
        </mxCell>
        <mxCell id="L_R_OmYirzBTy0bWvh7I-105" value="B完成" style="endArrow=classic;html=1;rounded=0;labelBackgroundColor=default;fontColor=default;strokeColor=default;fillColor=default;entryX=0.25;entryY=0;entryDx=0;entryDy=0;exitX=0.25;exitY=1;exitDx=0;exitDy=0;" parent="1" source="L_R_OmYirzBTy0bWvh7I-70" target="L_R_OmYirzBTy0bWvh7I-67" edge="1">
          <mxGeometry width="50" height="50" relative="1" as="geometry">
            <mxPoint x="2310" y="270" as="sourcePoint" />
            <mxPoint x="2360" y="220" as="targetPoint" />
          </mxGeometry>
        </mxCell>
        <mxCell id="L_R_OmYirzBTy0bWvh7I-106" value="" style="endArrow=classic;html=1;rounded=0;labelBackgroundColor=default;fontColor=default;strokeColor=default;fillColor=default;entryX=0.355;entryY=0.008;entryDx=0;entryDy=0;entryPerimeter=0;exitX=0.25;exitY=1;exitDx=0;exitDy=0;" parent="1" source="L_R_OmYirzBTy0bWvh7I-67" target="L_R_OmYirzBTy0bWvh7I-63" edge="1">
          <mxGeometry width="50" height="50" relative="1" as="geometry">
            <mxPoint x="2290" y="400" as="sourcePoint" />
            <mxPoint x="2340" y="350" as="targetPoint" />
          </mxGeometry>
        </mxCell>
        <mxCell id="L_R_OmYirzBTy0bWvh7I-107" value="" style="endArrow=classic;html=1;rounded=0;labelBackgroundColor=default;fontColor=default;strokeColor=default;fillColor=default;entryX=1;entryY=0.25;entryDx=0;entryDy=0;exitX=0;exitY=0.75;exitDx=0;exitDy=0;" parent="1" source="L_R_OmYirzBTy0bWvh7I-63" target="L_R_OmYirzBTy0bWvh7I-60" edge="1">
          <mxGeometry width="50" height="50" relative="1" as="geometry">
            <mxPoint x="2140" y="570" as="sourcePoint" />
            <mxPoint x="2190" y="520" as="targetPoint" />
          </mxGeometry>
        </mxCell>
        <mxCell id="L_R_OmYirzBTy0bWvh7I-108" value="A完成" style="edgeLabel;html=1;align=center;verticalAlign=middle;resizable=0;points=[];fontColor=default;" parent="L_R_OmYirzBTy0bWvh7I-107" vertex="1" connectable="0">
          <mxGeometry x="-0.1457" relative="1" as="geometry">
            <mxPoint as="offset" />
          </mxGeometry>
        </mxCell>
        <mxCell id="L_R_OmYirzBTy0bWvh7I-110" value="过程：A实例中通过@Autowired导入了B，B实例中通过@Autowired导入了A，如A先加载，在A实例化之后就会将A对象村放入Map缓存对象中，而后进行属性填充，从而加载到了B，通过getSingleton方式从缓存中去获取对象B，没有获取到，所以此时需要将B进行实例化，之后会将对象B存放入Map缓存中，之后进行属性填充，会通过getSingleton方式去从缓存中获取A，从而完成B的实例化，之后再设置A的属性B。至此，A、B实例化结束" style="text;html=1;align=center;verticalAlign=middle;whiteSpace=wrap;rounded=1;labelBackgroundColor=none;fillColor=#ffe6cc;strokeColor=#d79b00;fontColor=default;glass=0;" parent="1" vertex="1">
          <mxGeometry x="2575" y="125" width="320" height="130" as="geometry" />
        </mxCell>
        <mxCell id="L_R_OmYirzBTy0bWvh7I-71" value="通过getBean从缓存中去取" style="whiteSpace=wrap;html=1;rounded=0;fillColor=default;strokeColor=default;fontColor=default;" parent="1" vertex="1">
          <mxGeometry x="2230" y="150" width="120" height="60" as="geometry" />
        </mxCell>
        <mxCell id="L_R_OmYirzBTy0bWvh7I-115" value="" style="endArrow=classic;html=1;rounded=0;labelBackgroundColor=default;fontColor=default;strokeColor=default;fillColor=default;exitX=0.75;exitY=1;exitDx=0;exitDy=0;entryX=0;entryY=0.5;entryDx=0;entryDy=0;" parent="1" source="L_R_OmYirzBTy0bWvh7I-73" target="L_R_OmYirzBTy0bWvh7I-116" edge="1">
          <mxGeometry width="50" height="50" relative="1" as="geometry">
            <mxPoint x="2180" y="599.5" as="sourcePoint" />
            <mxPoint x="2300" y="599.5" as="targetPoint" />
            <Array as="points">
              <mxPoint x="2178" y="600" />
            </Array>
          </mxGeometry>
        </mxCell>
        <mxCell id="L_R_OmYirzBTy0bWvh7I-116" value="&lt;span style=&quot;font-family: &amp;quot;helvetica&amp;quot;&quot;&gt;通过getBean从缓存中去取&lt;/span&gt;" style="rhombus;whiteSpace=wrap;html=1;rounded=0;glass=0;labelBackgroundColor=none;fontColor=default;strokeColor=default;fillColor=default;verticalAlign=middle;" parent="1" vertex="1">
          <mxGeometry x="2260" y="560" width="80" height="80" as="geometry" />
        </mxCell>
        <mxCell id="L_R_OmYirzBTy0bWvh7I-117" value="" style="endArrow=classic;html=1;rounded=0;labelBackgroundColor=default;fontColor=default;strokeColor=default;fillColor=default;exitX=1;exitY=0.5;exitDx=0;exitDy=0;entryX=0.46;entryY=1.017;entryDx=0;entryDy=0;entryPerimeter=0;" parent="1" source="L_R_OmYirzBTy0bWvh7I-116" target="L_R_OmYirzBTy0bWvh7I-63" edge="1">
          <mxGeometry width="50" height="50" relative="1" as="geometry">
            <mxPoint x="2400" y="630" as="sourcePoint" />
            <mxPoint x="2440" y="600" as="targetPoint" />
            <Array as="points">
              <mxPoint x="2442" y="600" />
            </Array>
          </mxGeometry>
        </mxCell>
        <mxCell id="L_R_OmYirzBTy0bWvh7I-118" value="getSingleton没有取到" style="edgeLabel;html=1;align=center;verticalAlign=middle;resizable=0;points=[];fontColor=default;labelBackgroundColor=default;" parent="L_R_OmYirzBTy0bWvh7I-117" vertex="1" connectable="0">
          <mxGeometry x="-0.3367" y="-1" relative="1" as="geometry">
            <mxPoint x="37" y="-31" as="offset" />
          </mxGeometry>
        </mxCell>
        <mxCell id="L_R_OmYirzBTy0bWvh7I-120" value="" style="endArrow=classic;html=1;rounded=0;labelBackgroundColor=default;fontColor=default;strokeColor=default;fillColor=default;entryX=0.75;entryY=1;entryDx=0;entryDy=0;exitX=0.662;exitY=-0.037;exitDx=0;exitDy=0;exitPerimeter=0;" parent="1" source="L_R_OmYirzBTy0bWvh7I-73" target="L_R_OmYirzBTy0bWvh7I-98" edge="1">
          <mxGeometry width="50" height="50" relative="1" as="geometry">
            <mxPoint x="2170" y="310" as="sourcePoint" />
            <mxPoint x="2220" y="260" as="targetPoint" />
          </mxGeometry>
        </mxCell>
        <mxCell id="L_R_OmYirzBTy0bWvh7I-121" value="返回A" style="edgeLabel;html=1;align=center;verticalAlign=middle;resizable=0;points=[];fontColor=default;" parent="L_R_OmYirzBTy0bWvh7I-120" vertex="1" connectable="0">
          <mxGeometry x="0.4165" y="2" relative="1" as="geometry">
            <mxPoint as="offset" />
          </mxGeometry>
        </mxCell>
        <mxCell id="L_R_OmYirzBTy0bWvh7I-123" value="使用一级缓存可以解决循环依赖问题，但是无法保证多线程环境下获取Bean的完整性" style="rounded=0;whiteSpace=wrap;html=1;glass=0;labelBackgroundColor=none;strokeColor=#d79b00;fillColor=#ffe6cc;verticalAlign=middle;fontColor=default;" parent="1" vertex="1">
          <mxGeometry x="2660" y="610" width="250" height="60" as="geometry" />
        </mxCell>
        <mxCell id="L_R_OmYirzBTy0bWvh7I-124" value="如果线程1，创建了对象A之前获取对象A，获取不到，之后创建了对象A并放入了缓存对象，线程2去缓存中获取A，就获取到了，但这个时候缓存中的对象A是不完整的" style="text;html=1;strokeColor=#d6b656;fillColor=#fff2cc;align=center;verticalAlign=middle;whiteSpace=wrap;rounded=0;glass=0;labelBackgroundColor=none;fontColor=default;" parent="1" vertex="1">
          <mxGeometry x="2575" y="510" width="320" height="60" as="geometry" />
        </mxCell>
        <mxCell id="L_R_OmYirzBTy0bWvh7I-125" value="" style="endArrow=classic;html=1;rounded=0;labelBackgroundColor=default;fontColor=default;strokeColor=default;fillColor=default;entryX=0.25;entryY=0;entryDx=0;entryDy=0;exitX=0.25;exitY=1;exitDx=0;exitDy=0;" parent="1" source="L_R_OmYirzBTy0bWvh7I-124" target="L_R_OmYirzBTy0bWvh7I-123" edge="1">
          <mxGeometry width="50" height="50" relative="1" as="geometry">
            <mxPoint x="2570" y="640" as="sourcePoint" />
            <mxPoint x="2620" y="590" as="targetPoint" />
          </mxGeometry>
        </mxCell>
        <mxCell id="L_R_OmYirzBTy0bWvh7I-127" value="二级缓存的作用就是为了将成熟的Bean和不成熟的Bean分离开来，避免获取不到完整的Bean，所以在存储的时候，先存储到二级缓存，将成熟的Bean存储到一级缓存，在进行获取的时候，如果从一级缓存中获取到了就从一级缓存中拿，如果一级缓存中获取不到，就去二级缓存中拿" style="text;html=1;strokeColor=#d79b00;fillColor=#ffe6cc;align=center;verticalAlign=middle;whiteSpace=wrap;rounded=0;glass=0;labelBackgroundColor=none;dashed=1;" parent="1" vertex="1">
          <mxGeometry x="3400" y="-30" width="413" height="65" as="geometry" />
        </mxCell>
        <mxCell id="RlzC71JplKeRwMho_cgY-2" value="二级缓存解决循环依赖" style="text;html=1;strokeColor=#d79b00;fillColor=#ffe6cc;align=center;verticalAlign=middle;whiteSpace=wrap;rounded=0;fontColor=default;" vertex="1" parent="1">
          <mxGeometry x="3990" y="-290" width="130" height="30" as="geometry" />
        </mxCell>
        <mxCell id="RlzC71JplKeRwMho_cgY-3" value="" style="edgeStyle=orthogonalEdgeStyle;rounded=0;orthogonalLoop=1;jettySize=auto;html=1;fontColor=default;strokeColor=#0000FF;strokeWidth=2;" edge="1" parent="1" source="RlzC71JplKeRwMho_cgY-4" target="RlzC71JplKeRwMho_cgY-8">
          <mxGeometry relative="1" as="geometry" />
        </mxCell>
        <mxCell id="RlzC71JplKeRwMho_cgY-4" value="Bean&amp;nbsp; A" style="rounded=0;whiteSpace=wrap;html=1;fontColor=default;fillColor=default;strokeColor=default;verticalAlign=top;" vertex="1" parent="1">
          <mxGeometry x="3536" y="247.5" width="200" height="120" as="geometry" />
        </mxCell>
        <mxCell id="RlzC71JplKeRwMho_cgY-5" value="begin" style="text;html=1;strokeColor=#d79b00;fillColor=#ffe6cc;align=center;verticalAlign=middle;whiteSpace=wrap;rounded=0;fontColor=default;" vertex="1" parent="1">
          <mxGeometry x="3536" y="217.5" width="60" height="30" as="geometry" />
        </mxCell>
        <mxCell id="RlzC71JplKeRwMho_cgY-6" value="@Autowired&lt;br&gt;B&amp;nbsp; b" style="rounded=0;whiteSpace=wrap;html=1;strokeColor=#b85450;fillColor=#f8cecc;fontColor=default;" vertex="1" parent="1">
          <mxGeometry x="3576" y="297.5" width="120" height="60" as="geometry" />
        </mxCell>
        <mxCell id="RlzC71JplKeRwMho_cgY-7" value="" style="edgeStyle=orthogonalEdgeStyle;rounded=0;orthogonalLoop=1;jettySize=auto;html=1;fontColor=default;strokeWidth=2;strokeColor=#0000FF;" edge="1" parent="1" source="RlzC71JplKeRwMho_cgY-8" target="RlzC71JplKeRwMho_cgY-11">
          <mxGeometry relative="1" as="geometry" />
        </mxCell>
        <mxCell id="RlzC71JplKeRwMho_cgY-8" value="实例化A" style="whiteSpace=wrap;html=1;rounded=0;verticalAlign=middle;fillColor=default;strokeColor=default;fontColor=default;" vertex="1" parent="1">
          <mxGeometry x="3576" y="437.5" width="120" height="60" as="geometry" />
        </mxCell>
        <mxCell id="RlzC71JplKeRwMho_cgY-9" value="" style="edgeStyle=orthogonalEdgeStyle;rounded=0;orthogonalLoop=1;jettySize=auto;html=1;fontColor=default;strokeColor=#0000FF;labelBackgroundColor=default;entryX=1;entryY=0.5;entryDx=0;entryDy=0;startArrow=none;exitX=0.5;exitY=1;exitDx=0;exitDy=0;strokeWidth=2;" edge="1" parent="1" source="RlzC71JplKeRwMho_cgY-117" target="RlzC71JplKeRwMho_cgY-50">
          <mxGeometry relative="1" as="geometry">
            <mxPoint x="3880" y="790" as="targetPoint" />
          </mxGeometry>
        </mxCell>
        <mxCell id="RlzC71JplKeRwMho_cgY-11" value="属性填充&lt;br&gt;解析@Autowired注解" style="whiteSpace=wrap;html=1;rounded=0;fillColor=default;strokeColor=default;fontColor=default;" vertex="1" parent="1">
          <mxGeometry x="3576" y="557.5" width="120" height="60" as="geometry" />
        </mxCell>
        <mxCell id="RlzC71JplKeRwMho_cgY-12" value="" style="edgeStyle=orthogonalEdgeStyle;rounded=0;orthogonalLoop=1;jettySize=auto;html=1;labelBackgroundColor=default;fontColor=default;strokeColor=#0000FF;strokeWidth=2;" edge="1" parent="1" source="RlzC71JplKeRwMho_cgY-13" target="RlzC71JplKeRwMho_cgY-16">
          <mxGeometry relative="1" as="geometry" />
        </mxCell>
        <mxCell id="RlzC71JplKeRwMho_cgY-13" value="Bean&amp;nbsp; B" style="rounded=0;whiteSpace=wrap;html=1;fontColor=default;fillColor=default;strokeColor=default;verticalAlign=top;" vertex="1" parent="1">
          <mxGeometry x="4176" y="377.5" width="200" height="120" as="geometry" />
        </mxCell>
        <mxCell id="RlzC71JplKeRwMho_cgY-14" value="@Autowired&lt;br&gt;A&amp;nbsp; a" style="rounded=0;whiteSpace=wrap;html=1;strokeColor=#b85450;fillColor=#f8cecc;fontColor=default;" vertex="1" parent="1">
          <mxGeometry x="4216" y="427.5" width="120" height="60" as="geometry" />
        </mxCell>
        <mxCell id="RlzC71JplKeRwMho_cgY-15" value="" style="edgeStyle=orthogonalEdgeStyle;rounded=0;orthogonalLoop=1;jettySize=auto;html=1;labelBackgroundColor=default;fontColor=default;strokeColor=#0000FF;strokeWidth=2;" edge="1" parent="1" source="RlzC71JplKeRwMho_cgY-16" target="RlzC71JplKeRwMho_cgY-17">
          <mxGeometry relative="1" as="geometry" />
        </mxCell>
        <mxCell id="RlzC71JplKeRwMho_cgY-16" value="实例化B" style="whiteSpace=wrap;html=1;rounded=0;verticalAlign=middle;fillColor=default;strokeColor=default;fontColor=default;" vertex="1" parent="1">
          <mxGeometry x="4216" y="267.5" width="120" height="60" as="geometry" />
        </mxCell>
        <mxCell id="RlzC71JplKeRwMho_cgY-17" value="属性赋值&lt;br&gt;解析@Autowired" style="whiteSpace=wrap;html=1;rounded=0;fillColor=default;strokeColor=default;fontColor=default;" vertex="1" parent="1">
          <mxGeometry x="4216" y="147.5" width="120" height="60" as="geometry" />
        </mxCell>
        <mxCell id="RlzC71JplKeRwMho_cgY-18" value="" style="whiteSpace=wrap;html=1;rounded=0;fillColor=default;strokeColor=default;fontColor=default;" vertex="1" parent="1">
          <mxGeometry x="3906" y="337.5" width="130" height="80" as="geometry" />
        </mxCell>
        <mxCell id="RlzC71JplKeRwMho_cgY-19" value="&lt;span&gt;非成熟对象&lt;br&gt;A，B&lt;br&gt;&lt;/span&gt;" style="ellipse;whiteSpace=wrap;html=1;aspect=fixed;strokeColor=default;fillColor=default;verticalAlign=middle;fontColor=default;" vertex="1" parent="1">
          <mxGeometry x="3931" y="337.5" width="80" height="80" as="geometry" />
        </mxCell>
        <mxCell id="RlzC71JplKeRwMho_cgY-20" value="map" style="text;html=1;strokeColor=default;fillColor=default;align=center;verticalAlign=middle;whiteSpace=wrap;rounded=0;fontColor=default;" vertex="1" parent="1">
          <mxGeometry x="4036" y="367.5" width="60" height="30" as="geometry" />
        </mxCell>
        <mxCell id="RlzC71JplKeRwMho_cgY-21" value="" style="endArrow=classic;html=1;rounded=0;labelBackgroundColor=default;fontColor=default;strokeColor=#0000FF;fillColor=default;exitX=1;exitY=0.5;exitDx=0;exitDy=0;entryX=0.5;entryY=1;entryDx=0;entryDy=0;strokeWidth=2;" edge="1" parent="1" source="RlzC71JplKeRwMho_cgY-8" target="RlzC71JplKeRwMho_cgY-19">
          <mxGeometry width="50" height="50" relative="1" as="geometry">
            <mxPoint x="3946" y="487.5" as="sourcePoint" />
            <mxPoint x="3996" y="437.5" as="targetPoint" />
            <Array as="points">
              <mxPoint x="3971" y="467.5" />
            </Array>
          </mxGeometry>
        </mxCell>
        <mxCell id="RlzC71JplKeRwMho_cgY-22" value="实例化后直接放入缓存" style="edgeLabel;html=1;align=center;verticalAlign=middle;resizable=0;points=[];fontColor=default;" vertex="1" connectable="0" parent="RlzC71JplKeRwMho_cgY-21">
          <mxGeometry x="-0.2738" relative="1" as="geometry">
            <mxPoint as="offset" />
          </mxGeometry>
        </mxCell>
        <mxCell id="RlzC71JplKeRwMho_cgY-23" value="" style="endArrow=classic;html=1;rounded=0;labelBackgroundColor=default;fontColor=default;strokeColor=#0000FF;fillColor=default;exitX=0;exitY=0.5;exitDx=0;exitDy=0;entryX=0.5;entryY=0;entryDx=0;entryDy=0;strokeWidth=2;" edge="1" parent="1" source="RlzC71JplKeRwMho_cgY-16" target="RlzC71JplKeRwMho_cgY-19">
          <mxGeometry width="50" height="50" relative="1" as="geometry">
            <mxPoint x="4006" y="267.5" as="sourcePoint" />
            <mxPoint x="4056" y="217.5" as="targetPoint" />
            <Array as="points">
              <mxPoint x="3971" y="297.5" />
            </Array>
          </mxGeometry>
        </mxCell>
        <mxCell id="RlzC71JplKeRwMho_cgY-24" value="实例化后直接放入缓存" style="edgeLabel;html=1;align=center;verticalAlign=middle;resizable=0;points=[];fontColor=default;" vertex="1" connectable="0" parent="RlzC71JplKeRwMho_cgY-23">
          <mxGeometry x="-0.1368" relative="1" as="geometry">
            <mxPoint as="offset" />
          </mxGeometry>
        </mxCell>
        <mxCell id="RlzC71JplKeRwMho_cgY-29" value="B完成" style="endArrow=classic;html=1;rounded=0;labelBackgroundColor=default;fontColor=default;strokeColor=#FF3333;fillColor=default;entryX=0.25;entryY=0;entryDx=0;entryDy=0;exitX=0.25;exitY=1;exitDx=0;exitDy=0;strokeWidth=2;" edge="1" parent="1" source="RlzC71JplKeRwMho_cgY-17" target="RlzC71JplKeRwMho_cgY-16">
          <mxGeometry width="50" height="50" relative="1" as="geometry">
            <mxPoint x="4136" y="257.5" as="sourcePoint" />
            <mxPoint x="4186" y="207.5" as="targetPoint" />
          </mxGeometry>
        </mxCell>
        <mxCell id="RlzC71JplKeRwMho_cgY-30" value="" style="endArrow=classic;html=1;rounded=0;labelBackgroundColor=default;fontColor=default;strokeColor=#FF3333;fillColor=default;entryX=0.355;entryY=0.008;entryDx=0;entryDy=0;entryPerimeter=0;exitX=0.25;exitY=1;exitDx=0;exitDy=0;strokeWidth=2;" edge="1" parent="1" source="RlzC71JplKeRwMho_cgY-16" target="RlzC71JplKeRwMho_cgY-13">
          <mxGeometry width="50" height="50" relative="1" as="geometry">
            <mxPoint x="4116" y="387.5" as="sourcePoint" />
            <mxPoint x="4166" y="337.5" as="targetPoint" />
          </mxGeometry>
        </mxCell>
        <mxCell id="RlzC71JplKeRwMho_cgY-34" value="通过getBean从缓存中去取" style="whiteSpace=wrap;html=1;rounded=0;fillColor=default;strokeColor=default;fontColor=default;" vertex="1" parent="1">
          <mxGeometry x="4216" y="22.5" width="120" height="60" as="geometry" />
        </mxCell>
        <mxCell id="RlzC71JplKeRwMho_cgY-46" value="" style="whiteSpace=wrap;html=1;rounded=0;fillColor=default;strokeColor=default;fontColor=default;" vertex="1" parent="1">
          <mxGeometry x="3570" y="682.5" width="130" height="80" as="geometry" />
        </mxCell>
        <mxCell id="RlzC71JplKeRwMho_cgY-47" value="&lt;span&gt;成熟对象&lt;br&gt;&lt;/span&gt;" style="ellipse;whiteSpace=wrap;html=1;aspect=fixed;strokeColor=default;fillColor=default;verticalAlign=middle;fontColor=default;" vertex="1" parent="1">
          <mxGeometry x="3595" y="682.5" width="80" height="80" as="geometry" />
        </mxCell>
        <mxCell id="RlzC71JplKeRwMho_cgY-48" value="map" style="text;html=1;strokeColor=default;fillColor=default;align=center;verticalAlign=middle;whiteSpace=wrap;rounded=0;fontColor=default;" vertex="1" parent="1">
          <mxGeometry x="3510" y="707.5" width="60" height="30" as="geometry" />
        </mxCell>
        <mxCell id="RlzC71JplKeRwMho_cgY-148" value="" style="edgeStyle=orthogonalEdgeStyle;rounded=0;orthogonalLoop=1;jettySize=auto;html=1;strokeColor=#0000FF;strokeWidth=2;" edge="1" parent="1" source="RlzC71JplKeRwMho_cgY-49" target="RlzC71JplKeRwMho_cgY-147">
          <mxGeometry relative="1" as="geometry" />
        </mxCell>
        <mxCell id="RlzC71JplKeRwMho_cgY-49" value="二级缓存" style="text;html=1;strokeColor=#d79b00;fillColor=#ffe6cc;align=center;verticalAlign=middle;whiteSpace=wrap;rounded=0;" vertex="1" parent="1">
          <mxGeometry x="3846" y="365" width="60" height="30" as="geometry" />
        </mxCell>
        <mxCell id="RlzC71JplKeRwMho_cgY-123" value="" style="edgeStyle=orthogonalEdgeStyle;rounded=0;orthogonalLoop=1;jettySize=auto;html=1;strokeWidth=2;strokeColor=#0000FF;" edge="1" parent="1" source="RlzC71JplKeRwMho_cgY-50" target="RlzC71JplKeRwMho_cgY-122">
          <mxGeometry relative="1" as="geometry">
            <Array as="points">
              <mxPoint x="3730" y="790" />
              <mxPoint x="3971" y="790" />
            </Array>
          </mxGeometry>
        </mxCell>
        <mxCell id="RlzC71JplKeRwMho_cgY-50" value="一级缓存" style="text;html=1;strokeColor=#d79b00;fillColor=#ffe6cc;align=center;verticalAlign=middle;whiteSpace=wrap;rounded=0;" vertex="1" parent="1">
          <mxGeometry x="3700" y="707.5" width="60" height="30" as="geometry" />
        </mxCell>
        <mxCell id="RlzC71JplKeRwMho_cgY-51" value="" style="whiteSpace=wrap;html=1;rounded=0;fillColor=default;strokeColor=default;fontColor=default;" vertex="1" parent="1">
          <mxGeometry x="4211" y="-130" width="130" height="80" as="geometry" />
        </mxCell>
        <mxCell id="RlzC71JplKeRwMho_cgY-52" value="&lt;span&gt;成熟对象&lt;br&gt;&lt;/span&gt;" style="ellipse;whiteSpace=wrap;html=1;aspect=fixed;strokeColor=default;fillColor=default;verticalAlign=middle;fontColor=default;" vertex="1" parent="1">
          <mxGeometry x="4236" y="-130" width="80" height="80" as="geometry" />
        </mxCell>
        <mxCell id="RlzC71JplKeRwMho_cgY-53" value="map" style="text;html=1;strokeColor=default;fillColor=default;align=center;verticalAlign=middle;whiteSpace=wrap;rounded=0;fontColor=default;" vertex="1" parent="1">
          <mxGeometry x="4341" y="-105" width="60" height="30" as="geometry" />
        </mxCell>
        <mxCell id="RlzC71JplKeRwMho_cgY-54" value="一级缓存" style="text;html=1;strokeColor=#d79b00;fillColor=#ffe6cc;align=center;verticalAlign=middle;whiteSpace=wrap;rounded=0;" vertex="1" parent="1">
          <mxGeometry x="4151" y="-105" width="60" height="30" as="geometry" />
        </mxCell>
        <mxCell id="RlzC71JplKeRwMho_cgY-55" value="" style="endArrow=classic;html=1;rounded=0;exitX=0.5;exitY=0;exitDx=0;exitDy=0;strokeColor=#0000FF;strokeWidth=2;" edge="1" parent="1" source="RlzC71JplKeRwMho_cgY-17">
          <mxGeometry width="50" height="50" relative="1" as="geometry">
            <mxPoint x="4480" y="62.5" as="sourcePoint" />
            <mxPoint x="4276" y="80" as="targetPoint" />
          </mxGeometry>
        </mxCell>
        <mxCell id="RlzC71JplKeRwMho_cgY-117" value="&lt;span style=&quot;font-family: &amp;quot;helvetica&amp;quot;&quot;&gt;通过getBean从缓存中去取&lt;/span&gt;" style="rhombus;whiteSpace=wrap;html=1;rounded=0;glass=0;labelBackgroundColor=none;fontColor=default;strokeColor=default;fillColor=default;verticalAlign=middle;" vertex="1" parent="1">
          <mxGeometry x="3800" y="610" width="80" height="80" as="geometry" />
        </mxCell>
        <mxCell id="RlzC71JplKeRwMho_cgY-118" value="" style="edgeStyle=orthogonalEdgeStyle;rounded=0;orthogonalLoop=1;jettySize=auto;html=1;fontColor=default;strokeColor=#0000FF;labelBackgroundColor=default;entryX=1;entryY=0.5;entryDx=0;entryDy=0;endArrow=none;strokeWidth=2;" edge="1" parent="1" source="RlzC71JplKeRwMho_cgY-11" target="RlzC71JplKeRwMho_cgY-117">
          <mxGeometry relative="1" as="geometry">
            <mxPoint x="3760" y="722.5" as="targetPoint" />
            <mxPoint x="3696" y="587.5" as="sourcePoint" />
          </mxGeometry>
        </mxCell>
        <mxCell id="RlzC71JplKeRwMho_cgY-119" value="加载B" style="edgeLabel;html=1;align=center;verticalAlign=middle;resizable=0;points=[];fontColor=default;labelBackgroundColor=default;" vertex="1" connectable="0" parent="RlzC71JplKeRwMho_cgY-118">
          <mxGeometry x="-0.0839" y="-1" relative="1" as="geometry">
            <mxPoint x="1" y="-2" as="offset" />
          </mxGeometry>
        </mxCell>
        <mxCell id="RlzC71JplKeRwMho_cgY-122" value="是否获取到" style="rhombus;whiteSpace=wrap;html=1;rounded=0;" vertex="1" parent="1">
          <mxGeometry x="3931" y="682.5" width="80" height="80" as="geometry" />
        </mxCell>
        <mxCell id="RlzC71JplKeRwMho_cgY-124" value="" style="endArrow=classic;html=1;rounded=0;exitX=0.5;exitY=0;exitDx=0;exitDy=0;entryX=1;entryY=0.25;entryDx=0;entryDy=0;dashed=1;" edge="1" parent="1" source="RlzC71JplKeRwMho_cgY-122" target="RlzC71JplKeRwMho_cgY-11">
          <mxGeometry width="50" height="50" relative="1" as="geometry">
            <mxPoint x="4120" y="700" as="sourcePoint" />
            <mxPoint x="4170" y="650" as="targetPoint" />
            <Array as="points">
              <mxPoint x="3971" y="573" />
            </Array>
          </mxGeometry>
        </mxCell>
        <mxCell id="RlzC71JplKeRwMho_cgY-125" value="是" style="edgeLabel;html=1;align=center;verticalAlign=middle;resizable=0;points=[];" vertex="1" connectable="0" parent="RlzC71JplKeRwMho_cgY-124">
          <mxGeometry x="-0.6281" relative="1" as="geometry">
            <mxPoint as="offset" />
          </mxGeometry>
        </mxCell>
        <mxCell id="RlzC71JplKeRwMho_cgY-130" value="" style="endArrow=classic;html=1;rounded=0;exitX=1;exitY=0.5;exitDx=0;exitDy=0;entryX=0.808;entryY=0.981;entryDx=0;entryDy=0;entryPerimeter=0;strokeWidth=2;strokeColor=#0000FF;" edge="1" parent="1" source="RlzC71JplKeRwMho_cgY-122" target="RlzC71JplKeRwMho_cgY-18">
          <mxGeometry width="50" height="50" relative="1" as="geometry">
            <mxPoint x="4060" y="670" as="sourcePoint" />
            <mxPoint x="4110" y="620" as="targetPoint" />
          </mxGeometry>
        </mxCell>
        <mxCell id="RlzC71JplKeRwMho_cgY-131" value="否" style="edgeLabel;html=1;align=center;verticalAlign=middle;resizable=0;points=[];" vertex="1" connectable="0" parent="RlzC71JplKeRwMho_cgY-130">
          <mxGeometry x="0.1321" y="-1" relative="1" as="geometry">
            <mxPoint as="offset" />
          </mxGeometry>
        </mxCell>
        <mxCell id="RlzC71JplKeRwMho_cgY-133" value="是否获取到" style="rhombus;whiteSpace=wrap;html=1;labelBackgroundColor=none;fillColor=default;verticalAlign=middle;" vertex="1" parent="1">
          <mxGeometry x="4083" y="538" width="80" height="80" as="geometry" />
        </mxCell>
        <mxCell id="RlzC71JplKeRwMho_cgY-134" value="" style="endArrow=classic;html=1;rounded=0;entryX=0;entryY=0.5;entryDx=0;entryDy=0;exitX=1;exitY=1;exitDx=0;exitDy=0;strokeColor=#0000FF;strokeWidth=2;" edge="1" parent="1" source="RlzC71JplKeRwMho_cgY-18" target="RlzC71JplKeRwMho_cgY-133">
          <mxGeometry width="50" height="50" relative="1" as="geometry">
            <mxPoint x="4040" y="520" as="sourcePoint" />
            <mxPoint x="4090" y="470" as="targetPoint" />
            <Array as="points">
              <mxPoint x="4036" y="578" />
            </Array>
          </mxGeometry>
        </mxCell>
        <mxCell id="RlzC71JplKeRwMho_cgY-135" value="" style="endArrow=classic;html=1;rounded=0;exitX=1;exitY=0.5;exitDx=0;exitDy=0;entryX=0.5;entryY=1;entryDx=0;entryDy=0;strokeWidth=2;strokeColor=#0000FF;" edge="1" parent="1" source="RlzC71JplKeRwMho_cgY-133" target="RlzC71JplKeRwMho_cgY-13">
          <mxGeometry width="50" height="50" relative="1" as="geometry">
            <mxPoint x="4290" y="660" as="sourcePoint" />
            <mxPoint x="4340" y="610" as="targetPoint" />
            <Array as="points">
              <mxPoint x="4276" y="578" />
            </Array>
          </mxGeometry>
        </mxCell>
        <mxCell id="RlzC71JplKeRwMho_cgY-136" value="否" style="edgeLabel;html=1;align=center;verticalAlign=middle;resizable=0;points=[];" vertex="1" connectable="0" parent="RlzC71JplKeRwMho_cgY-135">
          <mxGeometry x="-0.1525" relative="1" as="geometry">
            <mxPoint as="offset" />
          </mxGeometry>
        </mxCell>
        <mxCell id="RlzC71JplKeRwMho_cgY-137" value="" style="endArrow=classic;html=1;rounded=0;entryX=0.75;entryY=0;entryDx=0;entryDy=0;exitX=0.5;exitY=0;exitDx=0;exitDy=0;dashed=1;" edge="1" parent="1" source="RlzC71JplKeRwMho_cgY-133" target="RlzC71JplKeRwMho_cgY-11">
          <mxGeometry width="50" height="50" relative="1" as="geometry">
            <mxPoint x="4090" y="540" as="sourcePoint" />
            <mxPoint x="4140" y="490" as="targetPoint" />
            <Array as="points">
              <mxPoint x="3666" y="538" />
            </Array>
          </mxGeometry>
        </mxCell>
        <mxCell id="RlzC71JplKeRwMho_cgY-138" value="是" style="edgeLabel;html=1;align=center;verticalAlign=middle;resizable=0;points=[];" vertex="1" connectable="0" parent="RlzC71JplKeRwMho_cgY-137">
          <mxGeometry x="0.0409" y="-1" relative="1" as="geometry">
            <mxPoint as="offset" />
          </mxGeometry>
        </mxCell>
        <mxCell id="RlzC71JplKeRwMho_cgY-139" value="是否获取到了" style="rhombus;whiteSpace=wrap;html=1;labelBackgroundColor=none;fillColor=default;verticalAlign=middle;" vertex="1" parent="1">
          <mxGeometry x="4003" y="-130" width="80" height="80" as="geometry" />
        </mxCell>
        <mxCell id="RlzC71JplKeRwMho_cgY-140" value="" style="endArrow=classic;html=1;rounded=0;entryX=0.5;entryY=1;entryDx=0;entryDy=0;exitX=0.5;exitY=0;exitDx=0;exitDy=0;strokeColor=#0000FF;strokeWidth=2;" edge="1" parent="1" source="RlzC71JplKeRwMho_cgY-34" target="RlzC71JplKeRwMho_cgY-52">
          <mxGeometry width="50" height="50" relative="1" as="geometry">
            <mxPoint x="4110" y="20" as="sourcePoint" />
            <mxPoint x="4160" y="-30" as="targetPoint" />
          </mxGeometry>
        </mxCell>
        <mxCell id="RlzC71JplKeRwMho_cgY-141" value="" style="endArrow=classic;html=1;rounded=0;entryX=1;entryY=0.5;entryDx=0;entryDy=0;exitX=0;exitY=0.5;exitDx=0;exitDy=0;strokeColor=#0000FF;strokeWidth=2;" edge="1" parent="1" source="RlzC71JplKeRwMho_cgY-54" target="RlzC71JplKeRwMho_cgY-139">
          <mxGeometry width="50" height="50" relative="1" as="geometry">
            <mxPoint x="4110" y="60" as="sourcePoint" />
            <mxPoint x="4160" y="10" as="targetPoint" />
          </mxGeometry>
        </mxCell>
        <mxCell id="RlzC71JplKeRwMho_cgY-142" value="" style="endArrow=classic;html=1;rounded=0;exitX=0.5;exitY=1;exitDx=0;exitDy=0;entryX=0;entryY=0.25;entryDx=0;entryDy=0;" edge="1" parent="1" source="RlzC71JplKeRwMho_cgY-139" target="RlzC71JplKeRwMho_cgY-17">
          <mxGeometry width="50" height="50" relative="1" as="geometry">
            <mxPoint x="4100" y="60" as="sourcePoint" />
            <mxPoint x="4150" y="10" as="targetPoint" />
            <Array as="points">
              <mxPoint x="4043" y="163" />
            </Array>
          </mxGeometry>
        </mxCell>
        <mxCell id="RlzC71JplKeRwMho_cgY-144" value="是" style="edgeLabel;html=1;align=center;verticalAlign=middle;resizable=0;points=[];" vertex="1" connectable="0" parent="RlzC71JplKeRwMho_cgY-142">
          <mxGeometry x="-0.4404" y="2" relative="1" as="geometry">
            <mxPoint as="offset" />
          </mxGeometry>
        </mxCell>
        <mxCell id="RlzC71JplKeRwMho_cgY-145" value="" style="endArrow=classic;html=1;rounded=0;exitX=0;exitY=0.5;exitDx=0;exitDy=0;entryX=0.25;entryY=0;entryDx=0;entryDy=0;strokeColor=#0000FF;strokeWidth=2;" edge="1" parent="1" source="RlzC71JplKeRwMho_cgY-139" target="RlzC71JplKeRwMho_cgY-18">
          <mxGeometry width="50" height="50" relative="1" as="geometry">
            <mxPoint x="4000" y="-90" as="sourcePoint" />
            <mxPoint x="3900" y="-130" as="targetPoint" />
            <Array as="points">
              <mxPoint x="3939" y="-90" />
            </Array>
          </mxGeometry>
        </mxCell>
        <mxCell id="RlzC71JplKeRwMho_cgY-146" value="否" style="edgeLabel;html=1;align=center;verticalAlign=middle;resizable=0;points=[];" vertex="1" connectable="0" parent="RlzC71JplKeRwMho_cgY-145">
          <mxGeometry x="-0.1821" y="-1" relative="1" as="geometry">
            <mxPoint as="offset" />
          </mxGeometry>
        </mxCell>
        <mxCell id="RlzC71JplKeRwMho_cgY-147" value="是否获取到了" style="rhombus;whiteSpace=wrap;html=1;rounded=0;" vertex="1" parent="1">
          <mxGeometry x="3760" y="135" width="80" height="80" as="geometry" />
        </mxCell>
        <mxCell id="RlzC71JplKeRwMho_cgY-149" value="" style="endArrow=classic;html=1;rounded=0;exitX=0;exitY=0.5;exitDx=0;exitDy=0;entryX=0.5;entryY=0;entryDx=0;entryDy=0;dashed=1;" edge="1" parent="1" source="RlzC71JplKeRwMho_cgY-147" target="RlzC71JplKeRwMho_cgY-4">
          <mxGeometry width="50" height="50" relative="1" as="geometry">
            <mxPoint x="3680" y="140" as="sourcePoint" />
            <mxPoint x="3730" y="90" as="targetPoint" />
            <Array as="points">
              <mxPoint x="3636" y="175" />
            </Array>
          </mxGeometry>
        </mxCell>
        <mxCell id="RlzC71JplKeRwMho_cgY-151" value="否" style="edgeLabel;html=1;align=center;verticalAlign=middle;resizable=0;points=[];" vertex="1" connectable="0" parent="RlzC71JplKeRwMho_cgY-149">
          <mxGeometry x="-0.1858" y="-1" relative="1" as="geometry">
            <mxPoint as="offset" />
          </mxGeometry>
        </mxCell>
        <mxCell id="RlzC71JplKeRwMho_cgY-150" value="" style="endArrow=classic;html=1;rounded=0;exitX=1;exitY=0.5;exitDx=0;exitDy=0;entryX=0;entryY=0.5;entryDx=0;entryDy=0;strokeColor=#0000FF;strokeWidth=2;" edge="1" parent="1" source="RlzC71JplKeRwMho_cgY-147" target="RlzC71JplKeRwMho_cgY-17">
          <mxGeometry width="50" height="50" relative="1" as="geometry">
            <mxPoint x="3870" y="180" as="sourcePoint" />
            <mxPoint x="3920" y="130" as="targetPoint" />
          </mxGeometry>
        </mxCell>
        <mxCell id="RlzC71JplKeRwMho_cgY-152" value="是" style="edgeLabel;html=1;align=center;verticalAlign=middle;resizable=0;points=[];" vertex="1" connectable="0" parent="RlzC71JplKeRwMho_cgY-150">
          <mxGeometry x="-0.2022" y="1" relative="1" as="geometry">
            <mxPoint as="offset" />
          </mxGeometry>
        </mxCell>
        <mxCell id="RlzC71JplKeRwMho_cgY-153" value="" style="endArrow=classic;html=1;rounded=0;entryX=1;entryY=0;entryDx=0;entryDy=0;strokeColor=#FF3333;strokeWidth=2;" edge="1" parent="1" target="RlzC71JplKeRwMho_cgY-11">
          <mxGeometry width="50" height="50" relative="1" as="geometry">
            <mxPoint x="4210" y="500" as="sourcePoint" />
            <mxPoint x="4140" y="450" as="targetPoint" />
            <Array as="points">
              <mxPoint x="4210" y="558" />
            </Array>
          </mxGeometry>
        </mxCell>
        <mxCell id="RlzC71JplKeRwMho_cgY-154" value="" style="endArrow=classic;html=1;rounded=0;strokeColor=#0000FF;strokeWidth=2;entryX=0.75;entryY=1;entryDx=0;entryDy=0;exitX=1;exitY=0.5;exitDx=0;exitDy=0;" edge="1" parent="1" source="RlzC71JplKeRwMho_cgY-17" target="RlzC71JplKeRwMho_cgY-53">
          <mxGeometry width="50" height="50" relative="1" as="geometry">
            <mxPoint x="4390" y="200" as="sourcePoint" />
            <mxPoint x="4440" y="150" as="targetPoint" />
            <Array as="points">
              <mxPoint x="4386" y="178" />
            </Array>
          </mxGeometry>
        </mxCell>
        <mxCell id="RlzC71JplKeRwMho_cgY-155" value="放入到一级缓存中" style="edgeLabel;html=1;align=center;verticalAlign=middle;resizable=0;points=[];" vertex="1" connectable="0" parent="RlzC71JplKeRwMho_cgY-154">
          <mxGeometry x="0.3201" y="1" relative="1" as="geometry">
            <mxPoint y="-28" as="offset" />
          </mxGeometry>
        </mxCell>
        <mxCell id="RlzC71JplKeRwMho_cgY-156" value="" style="endArrow=classic;html=1;rounded=0;strokeColor=#FF3333;strokeWidth=2;entryX=0.25;entryY=0;entryDx=0;entryDy=0;exitX=0;exitY=0;exitDx=0;exitDy=0;" edge="1" parent="1" source="RlzC71JplKeRwMho_cgY-11" target="RlzC71JplKeRwMho_cgY-48">
          <mxGeometry width="50" height="50" relative="1" as="geometry">
            <mxPoint x="3460" y="512.5" as="sourcePoint" />
            <mxPoint x="3510" y="462.5" as="targetPoint" />
            <Array as="points">
              <mxPoint x="3525" y="558" />
            </Array>
          </mxGeometry>
        </mxCell>
        <mxCell id="RlzC71JplKeRwMho_cgY-157" value="放入到一级缓存中" style="edgeLabel;html=1;align=center;verticalAlign=middle;resizable=0;points=[];" vertex="1" connectable="0" parent="RlzC71JplKeRwMho_cgY-156">
          <mxGeometry x="-0.0086" y="-1" relative="1" as="geometry">
            <mxPoint y="44" as="offset" />
          </mxGeometry>
        </mxCell>
        <mxCell id="RlzC71JplKeRwMho_cgY-158" value="" style="endArrow=classic;html=1;rounded=0;strokeColor=#00CC00;strokeWidth=3;exitX=0;exitY=0.5;exitDx=0;exitDy=0;entryX=0;entryY=0.75;entryDx=0;entryDy=0;" edge="1" parent="1" source="RlzC71JplKeRwMho_cgY-48" target="RlzC71JplKeRwMho_cgY-49">
          <mxGeometry width="50" height="50" relative="1" as="geometry">
            <mxPoint x="3390" y="690" as="sourcePoint" />
            <mxPoint x="3440" y="640" as="targetPoint" />
            <Array as="points">
              <mxPoint x="3470" y="723" />
              <mxPoint x="3470" y="388" />
            </Array>
          </mxGeometry>
        </mxCell>
        <mxCell id="RlzC71JplKeRwMho_cgY-159" value="清理不成熟对象" style="edgeLabel;html=1;align=center;verticalAlign=middle;resizable=0;points=[];" vertex="1" connectable="0" parent="RlzC71JplKeRwMho_cgY-158">
          <mxGeometry x="-0.1105" y="2" relative="1" as="geometry">
            <mxPoint as="offset" />
          </mxGeometry>
        </mxCell>
        <mxCell id="RlzC71JplKeRwMho_cgY-160" value="" style="endArrow=classic;html=1;rounded=0;strokeColor=#00CC00;strokeWidth=3;entryX=0.5;entryY=0;entryDx=0;entryDy=0;exitX=0.5;exitY=0;exitDx=0;exitDy=0;" edge="1" parent="1" source="RlzC71JplKeRwMho_cgY-53" target="RlzC71JplKeRwMho_cgY-49">
          <mxGeometry width="50" height="50" relative="1" as="geometry">
            <mxPoint x="3830" y="140" as="sourcePoint" />
            <mxPoint x="3880" y="90" as="targetPoint" />
            <Array as="points">
              <mxPoint x="4371" y="-170" />
              <mxPoint x="3876" y="-170" />
            </Array>
          </mxGeometry>
        </mxCell>
        <mxCell id="RlzC71JplKeRwMho_cgY-161" value="清理不成熟的对象" style="edgeLabel;html=1;align=center;verticalAlign=middle;resizable=0;points=[];" vertex="1" connectable="0" parent="RlzC71JplKeRwMho_cgY-160">
          <mxGeometry x="-0.1817" y="-1" relative="1" as="geometry">
            <mxPoint as="offset" />
          </mxGeometry>
        </mxCell>
        <mxCell id="RlzC71JplKeRwMho_cgY-163" value="" style="endArrow=none;html=1;rounded=0;strokeColor=#00CC00;strokeWidth=3;" edge="1" parent="1">
          <mxGeometry width="50" height="50" relative="1" as="geometry">
            <mxPoint x="4135" y="680" as="sourcePoint" />
            <mxPoint x="4275" y="680" as="targetPoint" />
          </mxGeometry>
        </mxCell>
        <mxCell id="RlzC71JplKeRwMho_cgY-164" value="清理二级缓存" style="text;html=1;strokeColor=none;fillColor=none;align=center;verticalAlign=middle;whiteSpace=wrap;rounded=0;labelBackgroundColor=none;" vertex="1" parent="1">
          <mxGeometry x="4315" y="670" width="130" height="20" as="geometry" />
        </mxCell>
        <mxCell id="RlzC71JplKeRwMho_cgY-166" value="实际路线" style="text;html=1;strokeColor=none;fillColor=none;align=center;verticalAlign=middle;whiteSpace=wrap;rounded=0;labelBackgroundColor=none;" vertex="1" parent="1">
          <mxGeometry x="4320" y="730" width="130" height="20" as="geometry" />
        </mxCell>
        <mxCell id="RlzC71JplKeRwMho_cgY-167" value="完成后路线" style="text;html=1;strokeColor=none;fillColor=none;align=center;verticalAlign=middle;whiteSpace=wrap;rounded=0;labelBackgroundColor=none;" vertex="1" parent="1">
          <mxGeometry x="4320" y="790" width="130" height="20" as="geometry" />
        </mxCell>
        <mxCell id="RlzC71JplKeRwMho_cgY-168" value="不会走路线" style="text;html=1;strokeColor=none;fillColor=none;align=center;verticalAlign=middle;whiteSpace=wrap;rounded=0;labelBackgroundColor=none;" vertex="1" parent="1">
          <mxGeometry x="4320" y="850" width="130" height="20" as="geometry" />
        </mxCell>
        <mxCell id="RlzC71JplKeRwMho_cgY-169" value="" style="endArrow=none;html=1;rounded=0;strokeColor=#0000FF;strokeWidth=3;" edge="1" parent="1">
          <mxGeometry width="50" height="50" relative="1" as="geometry">
            <mxPoint x="4135" y="740" as="sourcePoint" />
            <mxPoint x="4275" y="740" as="targetPoint" />
          </mxGeometry>
        </mxCell>
        <mxCell id="RlzC71JplKeRwMho_cgY-170" value="" style="endArrow=none;html=1;rounded=0;strokeColor=#FF3333;strokeWidth=3;" edge="1" parent="1">
          <mxGeometry width="50" height="50" relative="1" as="geometry">
            <mxPoint x="4135" y="800" as="sourcePoint" />
            <mxPoint x="4275" y="800" as="targetPoint" />
          </mxGeometry>
        </mxCell>
        <mxCell id="RlzC71JplKeRwMho_cgY-171" value="" style="endArrow=none;html=1;rounded=0;strokeColor=#000000;strokeWidth=3;dashed=1;" edge="1" parent="1">
          <mxGeometry width="50" height="50" relative="1" as="geometry">
            <mxPoint x="4135" y="860" as="sourcePoint" />
            <mxPoint x="4275" y="860" as="targetPoint" />
          </mxGeometry>
        </mxCell>
      </root>
    </mxGraphModel>
  </diagram>
</mxfile>
